<svg xmlns="http://www.w3.org/2000/svg" xmlns:xlink="http://www.w3.org/1999/xlink" width="500" zoomAndPan="magnify" viewBox="0 0 375 374.999991" height="500" preserveAspectRatio="xMidYMid meet" version="1.0"><defs><clipPath id="399d7f3e33"><path d="M 104 101 L 318.109375 101 L 318.109375 328.605469 L 104 328.605469 Z M 104 101 " clip-rule="nonzero"/></clipPath><clipPath id="f0330c314c"><path d="M 57.109375 46.605469 L 318.109375 46.605469 L 318.109375 282 L 57.109375 282 Z M 57.109375 46.605469 " clip-rule="nonzero"/></clipPath></defs><rect x="-37.5" width="450" fill="#ffffff" y="-37.499999" height="449.999989" fill-opacity="1"/><rect x="-37.5" width="450" fill="#ffffff" y="-37.499999" height="449.999989" fill-opacity="1"/><rect x="-37.5" width="450" fill="#ffffff" y="-37.499999" height="449.999989" fill-opacity="1"/><g clip-path="url(#399d7f3e33)"><path fill="#2763eb" d="M 270.574219 281.085938 L 152.175781 281.085938 L 152.175781 257.328125 L 246.808594 257.328125 C 246.808594 225.914062 246.808594 194.507812 246.808594 163.09375 L 187.613281 128.914062 L 128.410156 163.09375 L 128.410156 304.851562 L 294.332031 304.851562 L 294.332031 233.566406 L 318.089844 233.566406 L 318.089844 328.605469 L 104.632812 328.605469 L 104.632812 149.367188 L 187.59375 101.476562 L 270.554688 149.367188 C 270.554688 193.273438 270.554688 237.179688 270.554688 281.085938 Z M 270.574219 281.085938 " fill-opacity="1" fill-rule="evenodd"/></g><g clip-path="url(#f0330c314c)"><path fill="#bd272d" d="M 80.882812 135.652344 L 187.613281 74.046875 L 294.34375 135.652344 L 294.34375 176.808594 L 318.101562 176.808594 L 318.101562 121.9375 L 187.613281 46.605469 L 57.117188 121.9375 L 57.117188 281.085938 L 80.882812 281.085938 Z M 80.882812 135.652344 " fill-opacity="1" fill-rule="evenodd"/></g><path fill="#bd272d" d="M 183.246094 202.5 L 166.457031 202.5 L 166.457031 219.289062 L 183.246094 219.289062 Z M 166.457031 193.765625 L 183.246094 193.765625 L 183.246094 176.976562 L 166.457031 176.976562 Z M 191.972656 193.765625 L 208.761719 193.765625 L 208.761719 176.976562 L 191.972656 176.976562 Z M 191.972656 202.5 L 191.972656 219.289062 L 208.761719 219.289062 L 208.761719 202.5 Z M 191.972656 202.5 " fill-opacity="1" fill-rule="evenodd"/></svg>